<?xml version="1.0" encoding="UTF-8"?>
<svg id="Layer_1" data-name="Layer 1" xmlns="http://www.w3.org/2000/svg" viewBox="0 0 300 300">
  <defs>
    <style>
      .cls-1 {
        fill: #dfcdf7;
      }

      .cls-2 {
        fill: #3f3d56;
      }

      .cls-3 {
        fill: #975be5;
      }
    </style>
  </defs>
  <circle class="cls-1" cx="128.69" cy="157.32" r="101.86"/>
  <g>
    <g>
      <polygon class="cls-2" points="114.96 126.53 58.7 166.35 58.7 88.3 114.96 126.53"/>
      <path class="cls-2" d="M245.71,175.72v.02c-.48,9.12-8.01,16.36-17.26,16.36H75.95c-9.17,0-16.68-7.17-17.22-16.21l63.12-44.68,28.28,19.22c.67.45,1.44.69,2.2.69s1.53-.23,2.2-.69l28.19-19.28,62.99,44.57Z"/>
      <path class="cls-2" d="M238.82,116.55c2.36,0,4.65-.2,6.9-.59v50.23l-56.14-39.74,25.47-17.43c6.71,4.75,14.93,7.53,23.77,7.53Z"/>
      <path class="cls-2" d="M197.44,75.17c0,11.07,4.37,21.14,11.49,28.58l-56.62,38.74-93.61-63.63v-7.46c0-9.54,7.73-17.27,17.26-17.27h127.27c-3.67,6.17-5.78,13.37-5.78,21.05Z"/>
    </g>
    <path class="cls-3" d="M273.17,75.17c0,16.61-11.79,30.47-27.45,33.65-2.23.47-4.54.7-6.9.7-6.4,0-12.38-1.75-17.51-4.78-2.37-1.41-4.56-3.09-6.51-5.01-6.37-6.23-10.34-14.94-10.34-24.56,0-7.93,2.69-15.24,7.2-21.05,6.28-8.09,16.12-13.3,27.16-13.3,18.97,0,34.35,15.38,34.35,34.35Z"/>
  </g>
</svg>